<svg viewBox="0 0 25 25" xmlns="http://www.w3.org/2000/svg">
  <path d="M23.83,20l-1.73-.7A3.22,3.22,0,0,1,21.05,17c0-2.29-.05-6.22-.05-6.37V8.92A7.76,7.76,0,0,0,13.43,1H11.57A7.76,7.76,0,0,0,4,8.92v1.73C4,10.8,4,14.73,4,17a3.19,3.19,0,0,1-1.06,2.31L1.17,20a.49.49,0,0,0-.31.55.5.5,0,0,0,.49.41H8.07c.31,1.69,2.17,3,4.43,3s4.12-1.31,4.43-3h6.72a.5.5,0,0,0,.49-.41A.49.49,0,0,0,23.83,20ZM12.5,23a3.43,3.43,0,0,1-3.43-2h6.86A3.43,3.43,0,0,1,12.5,23ZM3.66,20A4.21,4.21,0,0,0,5,17c0-2.31,0-6.24,0-6.39V8.92A6.76,6.76,0,0,1,11.57,2h1.86A6.76,6.76,0,0,1,20,8.92v1.73c0,.15,0,4.08.05,6.39a4.18,4.18,0,0,0,1.3,3Z"/>
  <svg width="12" height="12" x="6.5" y="5.5" viewBox="0 0 25 25" xmlns="http://www.w3.org/2000/svg">
    <path d="M23.82,10.44a.51.51,0,0,0-.59-.41.5.5,0,0,0-.4.58A10.89,10.89,0,0,1,23,12.5a.5.5,0,0,0,1,0A11.77,11.77,0,0,0,23.82,10.44Z"/><path class="cls-1" d="M17.45,21.76a11.33,11.33,0,0,1-1.23.56.5.5,0,0,0,.18,1,.57.57,0,0,0,.18,0,10.85,10.85,0,0,0,1.34-.62.49.49,0,0,0,.2-.67A.49.49,0,0,0,17.45,21.76Z"/><path class="cls-1" d="M20.75,19a10,10,0,0,1-1,1.07.5.5,0,0,0,.35.86.49.49,0,0,0,.35-.14,10.66,10.66,0,0,0,1.06-1.17.5.5,0,1,0-.78-.62Z"/><path class="cls-1" d="M23.22,15a.5.5,0,0,0-.62.34,10,10,0,0,1-.5,1.39.49.49,0,0,0,.25.66.48.48,0,0,0,.2,0,.5.5,0,0,0,.46-.3,10.51,10.51,0,0,0,.55-1.51A.5.5,0,0,0,23.22,15Z"/><path class="cls-1" d="M22.5,8h.07a.5.5,0,0,0,.2-.08l.05,0A.8.8,0,0,0,23,7.67h0l1-3A.5.5,0,1,0,23,4.34l-.65,1.93A11.71,11.71,0,0,0,12.5,1a11.5,11.5,0,0,0,0,23,12.62,12.62,0,0,0,1.38-.08.51.51,0,0,0,.44-.56.49.49,0,0,0-.56-.43c-.41,0-.84.07-1.26.07a10.5,10.5,0,0,1,0-21,10.64,10.64,0,0,1,9.12,5H19.5a.47.47,0,0,0-.5.5.5.5,0,0,0,.5.5l3,0Z"/><path class="cls-1" d="M10,11.5c-.22.22-.51.49-.88.8L6.76,14.62a1,1,0,0,0-.22.26.52.52,0,0,0-.06.22v.35a.27.27,0,0,0,.26.26h4.82a.26.26,0,0,0,.19-.08.21.21,0,0,0,.07-.18V15a.21.21,0,0,0-.07-.18.29.29,0,0,0-.19-.07H8.15l2.1-2.13a7,7,0,0,0,.77-.77,2.9,2.9,0,0,0,.47-.78,2.26,2.26,0,0,0,.17-.88,2.46,2.46,0,0,0-.26-1.12,2,2,0,0,0-.82-.83,2.85,2.85,0,0,0-1.42-.31,2.75,2.75,0,0,0-1.11.21,2.24,2.24,0,0,0-.79.55,2.3,2.3,0,0,0-.49.76,2.53,2.53,0,0,0-.18.84.21.21,0,0,0,.07.15.23.23,0,0,0,.16.06h.57a.32.32,0,0,0,.17-.06.27.27,0,0,0,.12-.19,2,2,0,0,1,.24-.71,1.22,1.22,0,0,1,.49-.49,1.49,1.49,0,0,1,.75-.18,1.35,1.35,0,0,1,1,.37,1.33,1.33,0,0,1,.35,1,1.55,1.55,0,0,1-.13.63A2.41,2.41,0,0,1,10,11.5Z"/><path class="cls-1" d="M18.43,12.93h-1V8.3a.24.24,0,0,0-.07-.18.23.23,0,0,0-.18-.07H16.4a.46.46,0,0,0-.4.18l-3.28,4.63a.65.65,0,0,0-.09.19.5.5,0,0,0,0,.14v.44a.24.24,0,0,0,.07.18.29.29,0,0,0,.18.07h3.54v1.57a.25.25,0,0,0,.07.18.26.26,0,0,0,.19.08h.54a.23.23,0,0,0,.18-.08.21.21,0,0,0,.07-.18V13.88h1a.29.29,0,0,0,.18-.07.24.24,0,0,0,.07-.18v-.45a.23.23,0,0,0-.07-.18A.25.25,0,0,0,18.43,12.93Zm-2,0H13.77L16.4,9.2Z"/>
  </svg>
</svg>