
<svg xmlns="http://www.w3.org/2000/svg" viewBox="0 0 512 512">
  <path d="M436.994,74.943c-99.834-99.833-262.285-99.833-362.119,0c-99.834,99.834-99.834,262.275,0,362.109
			c49.917,49.917,115.493,74.881,181.059,74.881c65.566,0,131.142-24.964,181.059-74.881C485.359,388.692,512,324.393,512,255.997
			C512,187.603,485.359,123.302,436.994,74.943z M421.908,421.966c-91.52,91.513-240.426,91.524-331.946,0
			c-91.509-91.516-91.509-240.422,0-331.935c45.76-45.761,105.866-68.64,165.973-68.64c60.106,0,120.213,22.879,165.973,68.64
			c44.332,44.331,68.754,103.271,68.754,165.966C490.662,318.693,466.24,377.632,421.908,421.966z"/>
  <svg xmlns="http://www.w3.org/2000/svg" width="256" height="256" x="128" y="128" viewBox="0 0 251.479 251.479">
    <g>
      <path d="M209.355,135.551c-4.143,0-7.5,3.358-7.5,7.5v76.109H49.634v-76.109c0-4.142-3.357-7.5-7.5-7.5c-4.143,0-7.5,3.358-7.5,7.5
        v83.609c0,4.142,3.357,7.5,7.5,7.5h167.221c4.143,0,7.5-3.358,7.5-7.5v-83.609C216.855,138.909,213.497,135.551,209.355,135.551z"
        />
      <path d="M249.282,137.748L131.035,19.515c-2.928-2.929-7.677-2.928-10.606,0L2.197,137.748c-2.929,2.929-2.929,7.678,0,10.606
        c1.465,1.464,3.385,2.197,5.304,2.197c1.92,0,3.839-0.732,5.304-2.197l112.929-112.93l112.943,112.93
        c2.928,2.929,7.677,2.928,10.607-0.001C252.211,145.425,252.211,140.676,249.282,137.748z"/>
    </g>
  </svg>
</svg>
